<mxfile host="app.diagrams.net" agent="Mozilla/5.0 (Windows NT 10.0; Win64; x64) AppleWebKit/537.36 (KHTML, like Gecko) Chrome/131.0.0.0 Safari/537.36" version="26.0.4">
  <diagram name="Page-1" id="dzRiPWigpHZiM6uUpmTh">
    <mxGraphModel dx="1588" dy="824" grid="1" gridSize="10" guides="1" tooltips="1" connect="1" arrows="1" fold="1" page="1" pageScale="1" pageWidth="827" pageHeight="1169" math="0" shadow="0">
      <root>
        <mxCell id="0" />
        <mxCell id="1" parent="0" />
        <mxCell id="C94Ixm2lhW7aZoUwTz1U-2" value="" style="ellipse;whiteSpace=wrap;html=1;hachureGap=4;fontFamily=Architects Daughter;fontSource=https%3A%2F%2Ffonts.googleapis.com%2Fcss%3Ffamily%3DArchitects%2BDaughter;fontStyle=0" vertex="1" parent="1">
          <mxGeometry x="370" y="40" width="120" height="80" as="geometry" />
        </mxCell>
        <mxCell id="C94Ixm2lhW7aZoUwTz1U-13" value="" style="edgeStyle=orthogonalEdgeStyle;rounded=0;hachureGap=4;orthogonalLoop=1;jettySize=auto;html=1;fontFamily=Architects Daughter;fontSource=https%3A%2F%2Ffonts.googleapis.com%2Fcss%3Ffamily%3DArchitects%2BDaughter;" edge="1" parent="1" source="C94Ixm2lhW7aZoUwTz1U-3" target="C94Ixm2lhW7aZoUwTz1U-4">
          <mxGeometry relative="1" as="geometry" />
        </mxCell>
        <mxCell id="C94Ixm2lhW7aZoUwTz1U-3" value="&lt;font&gt;Start&lt;/font&gt;" style="text;html=1;align=center;verticalAlign=middle;whiteSpace=wrap;rounded=0;fontFamily=Architects Daughter;fontSource=https%3A%2F%2Ffonts.googleapis.com%2Fcss%3Ffamily%3DArchitects%2BDaughter;fontStyle=1;fontSize=23;horizontal=1;" vertex="1" parent="1">
          <mxGeometry x="340" y="45" width="170" height="70" as="geometry" />
        </mxCell>
        <mxCell id="C94Ixm2lhW7aZoUwTz1U-25" style="edgeStyle=orthogonalEdgeStyle;rounded=0;hachureGap=4;orthogonalLoop=1;jettySize=auto;html=1;exitX=0;exitY=0.5;exitDx=0;exitDy=0;entryX=0;entryY=0.5;entryDx=0;entryDy=0;fontFamily=Architects Daughter;fontSource=https%3A%2F%2Ffonts.googleapis.com%2Fcss%3Ffamily%3DArchitects%2BDaughter;" edge="1" parent="1" source="C94Ixm2lhW7aZoUwTz1U-4" target="C94Ixm2lhW7aZoUwTz1U-11">
          <mxGeometry relative="1" as="geometry">
            <Array as="points">
              <mxPoint x="240" y="255" />
              <mxPoint x="240" y="625" />
            </Array>
          </mxGeometry>
        </mxCell>
        <mxCell id="C94Ixm2lhW7aZoUwTz1U-4" value="" style="rhombus;whiteSpace=wrap;html=1;hachureGap=4;fontFamily=Architects Daughter;fontSource=https%3A%2F%2Ffonts.googleapis.com%2Fcss%3Ffamily%3DArchitects%2BDaughter;" vertex="1" parent="1">
          <mxGeometry x="350" y="210" width="150" height="90" as="geometry" />
        </mxCell>
        <mxCell id="C94Ixm2lhW7aZoUwTz1U-5" value="&lt;font style=&quot;font-size: 17px;&quot;&gt;&lt;b&gt;Condition&lt;/b&gt;&lt;/font&gt;" style="text;html=1;align=center;verticalAlign=middle;whiteSpace=wrap;rounded=0;fontFamily=Architects Daughter;fontSource=https%3A%2F%2Ffonts.googleapis.com%2Fcss%3Ffamily%3DArchitects%2BDaughter;" vertex="1" parent="1">
          <mxGeometry x="400" y="240" width="60" height="30" as="geometry" />
        </mxCell>
        <mxCell id="C94Ixm2lhW7aZoUwTz1U-23" style="edgeStyle=orthogonalEdgeStyle;rounded=0;hachureGap=4;orthogonalLoop=1;jettySize=auto;html=1;exitX=1;exitY=0.5;exitDx=0;exitDy=0;entryX=0.5;entryY=1;entryDx=0;entryDy=0;fontFamily=Architects Daughter;fontSource=https%3A%2F%2Ffonts.googleapis.com%2Fcss%3Ffamily%3DArchitects%2BDaughter;" edge="1" parent="1" source="C94Ixm2lhW7aZoUwTz1U-6" target="C94Ixm2lhW7aZoUwTz1U-9">
          <mxGeometry relative="1" as="geometry" />
        </mxCell>
        <mxCell id="C94Ixm2lhW7aZoUwTz1U-6" value="" style="shape=parallelogram;perimeter=parallelogramPerimeter;whiteSpace=wrap;html=1;fixedSize=1;hachureGap=4;fontFamily=Architects Daughter;fontSource=https%3A%2F%2Ffonts.googleapis.com%2Fcss%3Ffamily%3DArchitects%2BDaughter;rounded=0;" vertex="1" parent="1">
          <mxGeometry x="350" y="430" width="166" height="50" as="geometry" />
        </mxCell>
        <mxCell id="C94Ixm2lhW7aZoUwTz1U-7" value="Statement" style="text;html=1;align=center;verticalAlign=middle;whiteSpace=wrap;rounded=0;fontFamily=Architects Daughter;fontSource=https%3A%2F%2Ffonts.googleapis.com%2Fcss%3Ffamily%3DArchitects%2BDaughter;fontStyle=1;fontSize=18;" vertex="1" parent="1">
          <mxGeometry x="410" y="430" width="50" height="30" as="geometry" />
        </mxCell>
        <mxCell id="C94Ixm2lhW7aZoUwTz1U-9" value="" style="rounded=0;whiteSpace=wrap;html=1;hachureGap=4;fontFamily=Architects Daughter;fontSource=https%3A%2F%2Ffonts.googleapis.com%2Fcss%3Ffamily%3DArchitects%2BDaughter;glass=0;" vertex="1" parent="1">
          <mxGeometry x="550" y="320" width="120" height="40" as="geometry" />
        </mxCell>
        <mxCell id="C94Ixm2lhW7aZoUwTz1U-22" value="" style="edgeStyle=orthogonalEdgeStyle;rounded=0;hachureGap=4;orthogonalLoop=1;jettySize=auto;html=1;fontFamily=Architects Daughter;fontSource=https%3A%2F%2Ffonts.googleapis.com%2Fcss%3Ffamily%3DArchitects%2BDaughter;entryX=1;entryY=0.5;entryDx=0;entryDy=0;" edge="1" parent="1" source="C94Ixm2lhW7aZoUwTz1U-10" target="C94Ixm2lhW7aZoUwTz1U-4">
          <mxGeometry relative="1" as="geometry">
            <mxPoint x="605" y="245" as="targetPoint" />
            <Array as="points">
              <mxPoint x="610" y="255" />
            </Array>
          </mxGeometry>
        </mxCell>
        <mxCell id="C94Ixm2lhW7aZoUwTz1U-10" value="&lt;font style=&quot;font-size: 18px;&quot;&gt;&lt;b&gt;Update&lt;/b&gt;&lt;/font&gt;" style="text;html=1;align=center;verticalAlign=middle;whiteSpace=wrap;rounded=0;fontFamily=Architects Daughter;fontSource=https%3A%2F%2Ffonts.googleapis.com%2Fcss%3Ffamily%3DArchitects%2BDaughter;" vertex="1" parent="1">
          <mxGeometry x="550" y="325" width="110" height="30" as="geometry" />
        </mxCell>
        <mxCell id="C94Ixm2lhW7aZoUwTz1U-11" value="" style="ellipse;whiteSpace=wrap;html=1;hachureGap=4;fontFamily=Architects Daughter;fontSource=https%3A%2F%2Ffonts.googleapis.com%2Fcss%3Ffamily%3DArchitects%2BDaughter;" vertex="1" parent="1">
          <mxGeometry x="373" y="585" width="120" height="80" as="geometry" />
        </mxCell>
        <mxCell id="C94Ixm2lhW7aZoUwTz1U-12" value="&lt;b&gt;&lt;font style=&quot;font-size: 18px;&quot;&gt;End&lt;/font&gt;&lt;/b&gt;" style="text;html=1;align=center;verticalAlign=middle;whiteSpace=wrap;rounded=0;fontFamily=Architects Daughter;fontSource=https%3A%2F%2Ffonts.googleapis.com%2Fcss%3Ffamily%3DArchitects%2BDaughter;" vertex="1" parent="1">
          <mxGeometry x="400" y="610" width="60" height="30" as="geometry" />
        </mxCell>
        <mxCell id="C94Ixm2lhW7aZoUwTz1U-24" style="edgeStyle=orthogonalEdgeStyle;rounded=0;hachureGap=4;orthogonalLoop=1;jettySize=auto;html=1;exitX=0.5;exitY=1;exitDx=0;exitDy=0;entryX=0.454;entryY=0.017;entryDx=0;entryDy=0;entryPerimeter=0;fontFamily=Architects Daughter;fontSource=https%3A%2F%2Ffonts.googleapis.com%2Fcss%3Ffamily%3DArchitects%2BDaughter;" edge="1" parent="1" source="C94Ixm2lhW7aZoUwTz1U-4" target="C94Ixm2lhW7aZoUwTz1U-6">
          <mxGeometry relative="1" as="geometry" />
        </mxCell>
        <mxCell id="C94Ixm2lhW7aZoUwTz1U-26" value="&lt;b&gt;&lt;font style=&quot;font-size: 18px;&quot;&gt;False&lt;/font&gt;&lt;/b&gt;" style="text;html=1;align=center;verticalAlign=middle;whiteSpace=wrap;rounded=0;fontFamily=Architects Daughter;fontSource=https%3A%2F%2Ffonts.googleapis.com%2Fcss%3Ffamily%3DArchitects%2BDaughter;" vertex="1" parent="1">
          <mxGeometry x="240" y="220" width="60" height="30" as="geometry" />
        </mxCell>
        <mxCell id="C94Ixm2lhW7aZoUwTz1U-27" value="&lt;b&gt;&lt;font style=&quot;font-size: 18px;&quot;&gt;True&lt;/font&gt;&lt;/b&gt;" style="text;html=1;align=center;verticalAlign=middle;whiteSpace=wrap;rounded=0;fontFamily=Architects Daughter;fontSource=https%3A%2F%2Ffonts.googleapis.com%2Fcss%3Ffamily%3DArchitects%2BDaughter;" vertex="1" parent="1">
          <mxGeometry x="370" y="340" width="60" height="30" as="geometry" />
        </mxCell>
      </root>
    </mxGraphModel>
  </diagram>
</mxfile>
